<?xml version="1.0" encoding="utf-8"?>
<!-- Generator: Adobe Illustrator 25.2.0, SVG Export Plug-In . SVG Version: 6.00 Build 0)  -->
<svg version="1.1" xmlns="http://www.w3.org/2000/svg" xmlns:xlink="http://www.w3.org/1999/xlink" x="0px" y="0px"
	 viewBox="0 0 500 500" style="enable-background:new 0 0 500 500;" xml:space="preserve">
<style type="text/css">
	.st0{display:none;}
	.st1{display:inline;fill:#FFFFFF;stroke:#1D1D1B;stroke-miterlimit:10;}
	.st2{display:inline;fill:#575756;}
	.st3{display:inline;fill:#FFFFFF;}
	.st4{fill:#FFFFFF;}
</style>
<g id="Laag_1" class="st0">
	<circle class="st1" cx="250" cy="250" r="250"/>
</g>
<g id="Laag_2" class="st0">
	<path class="st2" d="M401,377H87.9c-11.2,0-20.3-9.1-20.3-20.3V146.3c0-11.2,9.1-20.3,20.3-20.3H401c11.2,0,20.3,9.1,20.3,20.3
		v210.3C421.3,367.9,412.2,377,401,377z"/>
	<circle class="st3" cx="99.6" cy="149.1" r="7.3"/>
	<circle class="st3" cx="120.6" cy="149.1" r="7.3"/>
	<circle class="st3" cx="141.7" cy="149.1" r="7.3"/>
	<path class="st3" d="M389.3,351.3h-287c-5.5,0-10-4.5-10-10V179.8h307v161.5C399.3,346.8,394.8,351.3,389.3,351.3z"/>
</g>
<g id="Laag_3">
	<path class="st4" d="M250,75.9c21,0,37.9,16.9,37.9,37.9c0,21-16.9,37.9-37.9,37.9s-37.9-16.9-37.9-37.9
		C212.1,93.5,229,75.9,250,75.9z M365.9,185.6l-83.3,25.1c-4.1,1.4-7.5,5.4-6.8,10.2c0.7,13.6,2,42.7,4.7,53.5
		c6.8,31.2,44,116.5,44,116.5c4.7,10.2,0,21.7-9.5,26.4c-2.7,1.4-5.4,2-8.1,2c-7.5,0-14.9-4.1-17.6-11.5l-39.3-82l-37.9,81.3
		c-3.4,7.5-10.2,11.5-17.6,11.5c-2.7,0-5.4-0.7-8.1-2c-10.2-4.7-14.2-16.3-9.5-26.4c0,0,37.3-85.4,44-116.5
		c2.7-10.8,4.1-40,4.7-53.5c0-4.7-2.7-8.8-6.8-10.2l-84-24.4c-10.8-3.4-16.9-14.9-13.6-25.1c3.4-10.2,14.9-14.9,25.1-12.2
		c0,0,76.6,24.4,103.7,24.4s105-25.1,105-25.1c10.2-2.7,21.7,3.4,24.4,13.6C382.1,171.4,376,182.9,365.9,185.6z"/>
</g>
</svg>
