<?xml version="1.0" encoding="utf-8"?>
<!-- Generator: Adobe Illustrator 25.2.0, SVG Export Plug-In . SVG Version: 6.00 Build 0)  -->
<svg version="1.1" xmlns="http://www.w3.org/2000/svg" xmlns:xlink="http://www.w3.org/1999/xlink" x="0px" y="0px"
	 viewBox="0 0 500 500" style="enable-background:new 0 0 500 500;" xml:space="preserve">
<style type="text/css">
	.st0{display:none;}
	.st1{display:inline;fill:#FFFFFF;stroke:#1D1D1B;stroke-miterlimit:10;}
	.st2{display:inline;fill:#575756;}
	.st3{display:inline;fill:#FFFFFF;}
</style>
<g id="Laag_1" class="st0">
	<circle class="st1" cx="250" cy="250" r="250"/>
</g>
<g id="Laag_2" class="st0">
	<path class="st2" d="M401,377H87.9c-11.2,0-20.3-9.1-20.3-20.3V146.3c0-11.2,9.1-20.3,20.3-20.3H401c11.2,0,20.3,9.1,20.3,20.3
		v210.3C421.3,367.9,412.2,377,401,377z"/>
	<circle class="st3" cx="99.6" cy="149.1" r="7.3"/>
	<circle class="st3" cx="120.6" cy="149.1" r="7.3"/>
	<circle class="st3" cx="141.7" cy="149.1" r="7.3"/>
	<path class="st3" d="M389.3,351.3h-287c-5.5,0-10-4.5-10-10V179.8h307v161.5C399.3,346.8,394.8,351.3,389.3,351.3z"/>
</g>
<g id="Laag_3">
	<g>
		<path d="M140.1,201.2h27.5v13.7h-13.7v13.7h-13.7v13.7h-13.7v13.7h-13.7v13.7h13.7v13.7h13.7v13.7h13.7v13.7h13.7v13.7h-27.5
			v-13.7h-13.7v-13.7h-13.7v-13.7H98.8v-13.7H85.1v-13.7h13.7v-13.7h13.7v-13.7h13.7v-13.7h13.7V201.2z"/>
		<path d="M277.5,256.1h-13.7v13.7H250v13.7h-13.7v13.7h-13.7v13.7h-13.7v13.7H195v-27.5h13.7v-13.7h13.7v-13.7h13.7v-13.7H250
			v-13.7h13.7v-13.7h13.7v-13.7h13.7v27.5h-13.7V256.1z"/>
		<path d="M332.4,201.2h27.5v13.7h13.7v13.7h13.7v13.7h13.7v13.7h13.7v13.7h-13.7v13.7h-13.7v13.7h-13.7v13.7h-13.7v13.7h-27.5
			v-13.7h13.7v-13.7h13.7v-13.7h13.7v-13.7h13.7v-13.7h-13.7v-13.7h-13.7v-13.7h-13.7v-13.7h-13.7V201.2z"/>
	</g>
</g>
</svg>
