<?xml version="1.0" encoding="utf-8"?>
<!-- Generator: Adobe Illustrator 25.2.0, SVG Export Plug-In . SVG Version: 6.00 Build 0)  -->
<svg version="1.1" xmlns="http://www.w3.org/2000/svg" xmlns:xlink="http://www.w3.org/1999/xlink" x="0px" y="0px"
	 viewBox="0 0 500 500" style="enable-background:new 0 0 500 500;" xml:space="preserve">
<style type="text/css">
	.st0{display:none;}
	.st1{display:inline;fill:#575756;}
	.st2{display:inline;fill:#FFFFFF;}
	.st3{display:inline;fill:#172ADD;}
	.st4{fill:#FFFFFF;}
	.st5{display:none;fill:none;stroke:#1D1D1B;stroke-miterlimit:10;}
</style>
<g id="Laag_2" class="st0">
	<path class="st1" d="M401,377H87.9c-11.2,0-20.3-9.1-20.3-20.3V146.3c0-11.2,9.1-20.3,20.3-20.3H401c11.2,0,20.3,9.1,20.3,20.3
		v210.3C421.3,367.9,412.2,377,401,377z"/>
	<circle class="st2" cx="99.6" cy="149.1" r="7.3"/>
	<circle class="st2" cx="120.6" cy="149.1" r="7.3"/>
	<circle class="st2" cx="141.7" cy="149.1" r="7.3"/>
	<path class="st2" d="M389.3,351.3h-287c-5.5,0-10-4.5-10-10V179.8h307v161.5C399.3,346.8,394.8,351.3,389.3,351.3z"/>
</g>
<g id="Laag_3" class="st0">
	<rect x="-149.2" y="-105.3" class="st3" width="834.1" height="728.8"/>
	<path class="st4" d="M250,75.9c21,0,37.9,16.9,37.9,37.9c0,21-16.9,37.9-37.9,37.9s-37.9-16.9-37.9-37.9
		C212.1,93.5,229,75.9,250,75.9z M365.9,185.6l-83.3,25.1c-4.1,1.4-7.5,5.4-6.8,10.2c0.7,13.6,2,42.7,4.7,53.5
		c6.8,31.2,44,116.5,44,116.5c4.7,10.2,0,21.7-9.5,26.4c-2.7,1.4-5.4,2-8.1,2c-7.5,0-14.9-4.1-17.6-11.5l-39.3-82l-37.9,81.3
		c-3.4,7.5-10.2,11.5-17.6,11.5c-2.7,0-5.4-0.7-8.1-2c-10.2-4.7-14.2-16.3-9.5-26.4c0,0,37.3-85.4,44-116.5
		c2.7-10.8,4.1-40,4.7-53.5c0-4.7-2.7-8.8-6.8-10.2l-84-24.4c-10.8-3.4-16.9-14.9-13.6-25.1c3.4-10.2,14.9-14.9,25.1-12.2
		c0,0,76.6,24.4,103.7,24.4s105-25.1,105-25.1c10.2-2.7,21.7,3.4,24.4,13.6C382.1,171.4,376,182.9,365.9,185.6z"/>
	<g>
		<circle class="st2" cx="244.9" cy="122.6" r="50.8"/>
		<path class="st2" d="M457.2,135.5c1.5-3.8-0.4-8-4.2-9.4c-3.8-1.5-8,0.4-9.4,4.2l-26.4,68.5c-4.9-0.5-9.9,0.8-14.1,4
			c-27.4,20.9-47.6,31.8-60,32.4c-8.3,0.4-14.5-4-26.6-13.3c-15.2-11.6-36-27.5-71.7-33.8c-0.7-0.1-1.4-0.2-2.1-0.3
			c-14.8-4.4-30.1-4.3-44.9,0.2c-1.3,0.2-2.7,0.6-4,1.1c-54.7,20.7-63.3,65.8-75.1,128.2c-4.9,25.6-10.4,54.6-19.8,88.6
			c-3,10.7,3.3,21.8,14,24.7c1.8,0.5,3.6,0.7,5.4,0.7c8.8,0,16.9-5.8,19.3-14.7c9.9-35.6,15.5-65.4,20.6-91.8
			c1.7-8.8,3.2-16.8,4.7-24.1L163,643c0,13.5,10.9,24.4,24.4,24.4c13.4,0,24.4-10.9,24.4-24.4V450.6h17.9v192.2
			c0,13.5,10.9,24.4,24.4,24.4c13.5,0,24.4-10.9,24.4-24.4V450.6h0.2V243.9c4.8,3.2,9.1,6.5,13.5,9.8c13.9,10.6,28.3,21.6,49.8,21.6
			c1,0,2.1,0,3.1-0.1c21.9-1.1,46.6-13.2,82.5-40.6c8.8-6.7,10.5-19.3,3.8-28.2c-0.3-0.4-0.7-0.8-1-1.2c0.1-0.1,0.1-0.3,0.2-0.4
			L457.2,135.5z"/>
		
			<rect x="352.4" y="117.2" transform="matrix(0.2666 -0.9638 0.9638 0.2666 119.523 450.8961)" class="st2" width="7.3" height="59.4"/>
		
			<rect x="360.9" y="78.5" transform="matrix(0.4396 -0.8982 0.8982 0.4396 105.1607 389.3087)" class="st2" width="7.3" height="63.7"/>
		
			<rect x="343.3" y="155.9" transform="matrix(8.300409e-02 -0.9965 0.9965 8.300409e-02 133.5013 515.6348)" class="st2" width="7.3" height="58.7"/>
	</g>
</g>
<g id="Laag_1">
	<circle class="st5" cx="250" cy="250" r="250"/>
	<g class="st0">
		<path class="st2" d="M343.3,369.8h-52.8l-21-54.6h-96.2l-19.9,54.6h-51.5l93.7-240.6H247L343.3,369.8z M253.9,274.7l-33.2-89.3
			l-32.5,89.3H253.9z"/>
		<path class="st2" d="M352,171.9v-42.7h46.1v42.7H352z M352,369.8V195.6h46.1v174.3L352,369.8L352,369.8z"/>
	</g>
	<g>
		<path class="st4" d="M86.4,348.9L155.2,244l-62.3-96.2h47.5l40.3,64.6l39.5-64.6h47.1l-62.6,97.7l68.7,103.4h-49l-44.6-69.6
			l-44.7,69.6L86.4,348.9L86.4,348.9z"/>
		<path class="st4" d="M413.6,348.9h-35.8v-21.4c-5.9,8.3-13,14.5-21.1,18.6c-8.1,4.1-16.3,6.1-24.5,6.1c-16.7,0-31.1-6.7-43-20.2
			c-11.9-13.5-17.9-32.3-17.9-56.4c0-24.7,5.8-43.5,17.4-56.3c11.6-12.8,26.3-19.3,44-19.3c16.3,0,30.4,6.8,42.3,20.3v-72.4h38.5
			L413.6,348.9L413.6,348.9z M310.7,272.9c0,15.5,2.1,26.8,6.4,33.7c6.2,10.1,14.9,15.1,26.1,15.1c8.9,0,16.4-3.8,22.6-11.3
			c6.2-7.5,9.3-18.8,9.3-33.8c0-16.7-3-28.8-9.1-36.1c-6-7.4-13.8-11-23.2-11c-9.1,0-16.8,3.6-23,10.9
			C313.8,247.6,310.7,258.5,310.7,272.9z"/>
	</g>
</g>
</svg>
