<?xml version="1.0" encoding="utf-8"?>
<!-- Generator: Adobe Illustrator 25.2.1, SVG Export Plug-In . SVG Version: 6.00 Build 0)  -->
<svg version="1.1" id="Laag_1" xmlns="http://www.w3.org/2000/svg" xmlns:xlink="http://www.w3.org/1999/xlink" x="0px" y="0px"
	 viewBox="0 0 1000 300" style="enable-background:new 0 0 1000 300;" xml:space="preserve">
<style type="text/css">
	.st0{fill:#55B25B;}
</style>
<path class="st0" d="M1000,109c0-2.2-1-3.2-3.4-3.2h-16.9c-2.6,0-3.6,1-3.6,3.2v44.7c0,10.7,0,17.1-0.6,22.2
	c-0.6,4.8-1.8,8.1-5.6,10.7c-3.8,2.8-10.5,4.4-16.3,4.4c-6.2,0-11.5-1.6-14.7-5.4c-3.4-4-4.2-9.7-4.2-24.2V109c0-2.2-1-3.2-3.4-3.2
	h-17.1c-2.4,0-3.4,1-3.4,3.2v60.4c0,14.3,2.4,25,9.3,32.4c5.8,6.6,15.5,10.9,27,10.9c12.5,0,22.2-4.6,28.8-11.1v10.7
	c0,10.3-1.8,17.1-5.4,21.3c-3.2,4-10.1,6.8-21.1,6.8c-6.4,0-13.5-1-21.6-2.6c-3-0.6-4,0.2-4.6,3l-2.4,11.5c-0.6,2.8,0.2,4.2,2.6,4.8
	c8.5,2.4,18.7,3.8,28,3.8c16.7,0,29-4.2,36.9-12.5c7.5-7.9,11.3-20.7,11.3-37.7V109z M826.2,121.3c0,2.4,1,3.4,3.2,3.4h12.5v82.8
	c0,2.2,1,3.2,3.4,3.2h17.1c2.4,0,3.4-1,3.4-3.2v-82.8h26.6c2.2,0,3.2-1,3.2-3.4v-12.1c0-2.4-1-3.4-3.2-3.4h-26.6v-6.8
	c0-15.7,7.1-22.8,19.7-22.8c4.4,0,8.7,0.8,12.7,1.6c3,0.6,4.4,0,5-2.4l2.6-10.3c0.6-2.8-0.4-4.2-2.8-5.2c-4.6-2-11.9-3.4-19.9-3.4
	c-25.2,0-41.1,14.5-41.1,42.1v7.1h-12.5c-2.2,0-3.2,1-3.2,3.4V121.3z M807.1,86.2c2.6,0,3.8-1.2,3.8-3.4V62.8c0-2.2-1.2-3.4-3.8-3.4
	h-20.1c-2.4,0-3.6,1.2-3.6,3.4v20.1c0,2.2,1.2,3.4,3.6,3.4H807.1z M805.8,210.7c2.4,0,3.4-1,3.4-3.2V109c0-2.2-1-3.2-3.4-3.2h-17.1
	c-2.4,0-3.4,1-3.4,3.2v98.5c0,2.2,1,3.2,3.4,3.2H805.8z M731.3,165.4c0,11.3-1.4,17.3-5.4,21.3c-3.6,3.6-9.7,5.6-15.7,5.6
	c-16.5,0-23-14.9-23-33c0-22.4,9.3-34.8,24.2-34.8c7.3,0,14.7,3.2,19.9,9.3V165.4z M750.7,211.3c4.2,0,7.9-0.6,10.1-1.4
	c2.6-0.8,3.4-2.2,3.4-4.6v-9.7c0-2.4-0.8-3.2-3-3.4c-4.8-0.6-6.2-2.6-6.2-7.5V61.8c0-2.2-1-3.2-3.4-3.2h-17.1c-2.4,0-3.4,1-3.4,3.2
	v50.8c-5.6-5.4-14.5-8.7-23.8-8.7c-24.4,0-44.9,20.7-44.9,56.4c0,30.8,15.1,52.4,42.5,52.4c10.1,0,21.8-4.8,28-12.1
	C736.2,208.1,743.4,211.3,750.7,211.3 M614.9,165.4c0,11.3-1.4,17.3-5.4,21.3c-3.6,3.6-9.7,5.6-15.7,5.6c-16.5,0-23-14.9-23-33
	c0-22.4,9.3-34.8,24.2-34.8c7.3,0,14.7,3.2,19.9,9.3V165.4z M634.4,211.3c4.2,0,7.9-0.6,10.1-1.4c2.6-0.8,3.4-2.2,3.4-4.6v-9.7
	c0-2.4-0.8-3.2-3-3.4c-4.8-0.6-6.2-2.6-6.2-7.5V61.8c0-2.2-1-3.2-3.4-3.2h-17.1c-2.4,0-3.4,1-3.4,3.2v50.8
	c-5.6-5.4-14.5-8.7-23.8-8.7c-24.4,0-44.9,20.7-44.9,56.4c0,30.8,15.1,52.4,42.5,52.4c10.1,0,21.8-4.8,28-12.1
	C619.9,208.1,627,211.3,634.4,211.3 M501.9,200l0.8,7.5c0.4,2.4,1.2,3.2,3.8,3.2h15.3c2.6,0,3.6-1,3.6-3.2c0-3-1.2-19.7-1.2-36.3
	V109c0-2.2-1-3.2-3.4-3.2h-16.9c-2.6,0-3.6,1-3.6,3.2v43.5c0,8.9,0,17.3-0.4,22.2c-0.6,6.2-2,9.3-5.6,11.7c-4,3-10.5,4.6-16.1,4.6
	c-6.8,0-11.9-1.6-15.1-5.2c-3.4-4.4-4.2-9.7-4.2-24.2V109c0-2.2-1-3.2-3.4-3.2h-17.1c-2.4,0-3.4,1-3.4,3.2v60.4
	c0,15.5,2.8,25.2,9.3,32.6c6.2,6.8,15.7,10.7,27.2,10.7C484.2,212.7,495.5,207.3,501.9,200 M344.8,127.5V88h9.9
	c8.3,0,16.1,0.8,21.1,5.2c3.4,3,5.4,7.3,5.4,13.9c0,13.1-8.9,20.5-26,20.5H344.8z M344.8,190.7v-43.9h14.3
	c18.5,0,29.2,6.2,29.2,22.2c0,18.1-14.7,21.7-30.4,21.7H344.8z M358.5,210.7c31.8,0,55.6-11.3,55.6-42.1c0-17.3-9.7-27.8-25.8-34
	c12.5-7,18.5-17.7,18.5-30.2c0-12.1-4.6-21.1-12.1-26.8c-9.3-7.2-23.2-9.9-41.1-9.9h-30c-2.8,0-4,1.2-4,3.8V207c0,2.6,1.2,3.8,4,3.8
	H358.5z"/>
<path class="st0" d="M111.7,24.8c-60.8,0-110,49.3-110,110c0,60.8,49.3,110,110,110s110-49.3,110-110
	C221.7,74.1,172.5,24.8,111.7,24.8 M162.2,183.5c-2,3.2-6.2,4.3-9.4,2.3c-25.8-15.8-58.4-19.4-96.6-10.6c-3.7,0.8-7.4-1.5-8.2-5.2
	c-0.8-3.7,1.5-7.4,5.2-8.2c41.9-9.6,77.9-5.5,106.9,12.3C163.1,176.1,164.1,180.3,162.2,183.5 M175.6,153.6c-2.5,4-7.8,5.3-11.8,2.8
	c-29.6-18.2-74.7-23.4-109.6-12.8c-4.5,1.4-9.3-1.2-10.7-5.7c-1.4-4.5,1.2-9.3,5.7-10.7c40-12.1,89.6-6.3,123.6,14.6
	C176.8,144.2,178.1,149.5,175.6,153.6 M176.8,122.4c-35.5-21.1-94-23-127.8-12.7c-5.4,1.6-11.2-1.4-12.8-6.9
	c-1.6-5.4,1.4-11.2,6.9-12.8c38.9-11.8,103.5-9.5,144.3,14.7c4.9,2.9,6.5,9.2,3.6,14.1C188,123.7,181.7,125.3,176.8,122.4"/>
</svg>
