<?xml version="1.0" encoding="utf-8"?>
<!-- Generator: Adobe Illustrator 24.2.1, SVG Export Plug-In . SVG Version: 6.00 Build 0)  -->
<svg version="1.1" xmlns="http://www.w3.org/2000/svg" xmlns:xlink="http://www.w3.org/1999/xlink" x="0px" y="0px"
	 viewBox="0 0 914.9 245.4" style="enable-background:new 0 0 914.9 245.4;" xml:space="preserve">
<style type="text/css">
	.st0{display:none;}
	.st1{display:inline;fill:#FF6200;}
	.st2{display:inline;}
	.st3{fill:#FFFFFF;}
	.st4{clip-path:url(#SVGID_2_);fill:#FFFFFF;}
	.st5{clip-path:url(#SVGID_4_);fill:#FFFFFF;}
	.st6{clip-path:url(#SVGID_6_);fill:#FFFFFF;}
	.st7{clip-path:url(#SVGID_8_);fill:#FFFFFF;}
	.st8{clip-path:url(#SVGID_10_);fill:#FFFFFF;}
	.st9{clip-path:url(#SVGID_12_);fill:#FF6200;}
	.st10{display:inline;fill:#EA621B;}
	.st11{clip-path:url(#SVGID_14_);fill:#FF6200;}
</style>
<g id="Laag_1" class="st0">
	<rect x="539.6" y="40.2" class="st1" width="345" height="100.3"/>
	<g class="st2">
		<path class="st3" d="M600.8,84c-3.5,7.8-7.1,16.1-11,24.9s-5.9,13.3-6,13.6h-4.6c-0.1-0.3-2.1-4.6-5.8-12.9s-7.5-16.7-11.3-25.2
			l5.8-2.6l13.9,32.9h0.1l13.5-32.8L600.8,84z"/>
		<path class="st3" d="M645.3,102.5c0,3.1-0.5,6-1.6,8.8s-2.7,5.2-4.7,7.2c-1.7,1.7-3.7,2.9-5.8,3.8s-4.5,1.3-7.2,1.3
			c-2.5,0-4.9-0.4-7.1-1.3c-2.2-0.9-4.2-2.1-5.9-3.8c-2-1.9-3.6-4.3-4.6-7.1c-1.1-2.8-1.6-5.8-1.6-8.9c0-3,0.5-5.8,1.4-8.4
			c0.9-2.5,2.4-4.8,4.4-6.9c1.8-1.8,3.8-3.3,6.2-4.2c2.3-1,4.8-1.5,7.4-1.5c2.7,0,5.2,0.5,7.5,1.4c2.2,0.9,4.2,2.3,5.9,4.1
			c2,2.1,3.5,4.4,4.5,7C644.9,96.5,645.3,99.4,645.3,102.5z M639,102.7c0-2.5-0.4-4.9-1.2-7.2c-0.8-2.3-2-4.3-3.7-5.9
			c-1-1-2.2-1.8-3.7-2.3c-1.4-0.5-2.9-0.8-4.4-0.8c-1.8,0-3.4,0.3-4.7,0.9s-2.6,1.5-3.8,2.7c-1.4,1.4-2.5,3.2-3.3,5.5
			c-0.8,2.2-1.2,4.5-1.2,6.9c0,2.7,0.4,5.2,1.2,7.4c0.8,2.3,2.1,4.2,4,5.8c1,0.9,2.2,1.6,3.6,2.1c1.3,0.5,2.8,0.7,4.3,0.7
			c1.7,0,3.2-0.3,4.6-0.9c1.4-0.6,2.7-1.4,3.8-2.5c1.5-1.5,2.6-3.4,3.4-5.5C638.6,107.4,639,105.1,639,102.7z"/>
		<path class="st3" d="M691.4,102.5c0,3.1-0.5,6-1.6,8.8s-2.7,5.2-4.7,7.2c-1.7,1.7-3.7,2.9-5.8,3.8s-4.5,1.3-7.2,1.3
			c-2.5,0-4.9-0.4-7.1-1.3c-2.2-0.9-4.2-2.1-5.9-3.8c-2-1.9-3.6-4.3-4.6-7.1c-1.1-2.8-1.6-5.8-1.6-8.9c0-3,0.5-5.8,1.4-8.4
			c0.9-2.5,2.4-4.8,4.4-6.9c1.8-1.8,3.8-3.3,6.2-4.2c2.3-1,4.8-1.5,7.4-1.5c2.7,0,5.2,0.5,7.5,1.4c2.2,0.9,4.2,2.3,5.9,4.1
			c2,2.1,3.5,4.4,4.5,7C690.9,96.5,691.4,99.4,691.4,102.5z M685.1,102.7c0-2.5-0.4-4.9-1.2-7.2c-0.8-2.3-2-4.3-3.7-5.9
			c-1-1-2.2-1.8-3.7-2.3c-1.4-0.5-2.9-0.8-4.4-0.8c-1.8,0-3.4,0.3-4.7,0.9s-2.6,1.5-3.8,2.7c-1.4,1.4-2.5,3.2-3.3,5.5
			c-0.8,2.2-1.2,4.5-1.2,6.9c0,2.7,0.4,5.2,1.2,7.4c0.8,2.3,2.1,4.2,4,5.8c1,0.9,2.2,1.6,3.6,2.1c1.3,0.5,2.8,0.7,4.3,0.7
			c1.7,0,3.2-0.3,4.6-0.9c1.4-0.6,2.7-1.4,3.8-2.5c1.5-1.5,2.6-3.4,3.4-5.5C684.7,107.4,685.1,105.1,685.1,102.7z"/>
		<path class="st3" d="M725.4,87.1c-1.4,0.3-3.7,1.1-6.7,2.2s-6.4,2.6-10.3,4.4c0,0.3,0,1.6,0,4s0,4.6,0,6.6c0,3.1,0,6.8,0.1,11.1
			s0.1,6.6,0.1,7.1h-6.2c0-0.4,0-1.9,0.1-4.4s0.1-6.8,0.1-12.8c0-2.5,0-5.9,0-10.3s-0.1-8.6-0.1-12.5h6.1v6l0,0
			c3-1.7,5.9-3.1,8.8-4.4c2.9-1.2,5.2-2.1,7-2.5L725.4,87.1z"/>
		<path class="st3" d="M761.2,122.3c0,2.5-0.4,4.9-1.1,7.1c-0.7,2.2-1.9,4.1-3.6,5.7c-1.5,1.4-3.4,2.5-5.6,3.5s-5.2,1.6-8.9,2
			l-1.3-4.8c2.5-0.3,4.7-0.7,6.6-1.3c1.9-0.6,3.4-1.4,4.5-2.4c1.2-1.1,2-2.5,2.6-4.1c0.5-1.7,0.8-3.9,0.8-6.8c0-6.6,0-14.7-0.1-24.1
			S755,82.7,755,82.5h6.2c0,0.4,0,2.4,0,6.1s0,8.1,0,13.3c0,3.3,0,6.8,0,10.5C761.2,116,761.2,119.3,761.2,122.3z M761.6,74.8h-7V68
			h7V74.8z"/>
		<path class="st3" d="M810.7,102.5c0,3.1-0.5,6-1.6,8.8s-2.7,5.2-4.7,7.2c-1.7,1.7-3.7,2.9-5.8,3.8s-4.5,1.3-7.2,1.3
			c-2.5,0-4.9-0.4-7.1-1.3c-2.2-0.9-4.2-2.1-5.9-3.8c-2-1.9-3.6-4.3-4.6-7.1c-1.1-2.8-1.6-5.8-1.6-8.9c0-3,0.5-5.8,1.4-8.4
			c0.9-2.5,2.4-4.8,4.4-6.9c1.8-1.8,3.8-3.3,6.2-4.2c2.3-1,4.8-1.5,7.4-1.5c2.7,0,5.2,0.5,7.5,1.4c2.2,0.9,4.2,2.3,5.9,4.1
			c2,2.1,3.5,4.4,4.5,7C810.2,96.5,810.7,99.4,810.7,102.5z M804.4,102.7c0-2.5-0.4-4.9-1.2-7.2c-0.8-2.3-2-4.3-3.7-5.9
			c-1-1-2.2-1.8-3.7-2.3c-1.4-0.5-2.9-0.8-4.4-0.8c-1.8,0-3.4,0.3-4.7,0.9s-2.6,1.5-3.8,2.7c-1.4,1.4-2.5,3.2-3.3,5.5
			c-0.8,2.2-1.2,4.5-1.2,6.9c0,2.7,0.4,5.2,1.2,7.4c0.8,2.3,2.1,4.2,4,5.8c1,0.9,2.2,1.6,3.6,2.1c1.3,0.5,2.8,0.7,4.3,0.7
			c1.7,0,3.2-0.3,4.6-0.9c1.4-0.6,2.7-1.4,3.8-2.5c1.5-1.5,2.6-3.4,3.4-5.5C804,107.4,804.4,105.1,804.4,102.7z"/>
		<path class="st3" d="M854.2,122.5h-6v-4.6l0,0c-1.8,1.2-4.1,2.5-6.9,3.7c-2.8,1.3-5.5,1.9-8.1,1.9c-3.6,0-6.5-1.1-8.5-3.2
			c-2.1-2.2-3.1-5.2-3.1-9.1c0-2.1,0-4.6,0.1-7.5c0-2.9,0.1-5,0.1-6.3c0-2.4,0-5.4-0.1-8.9s-0.1-5.5-0.1-5.9h6.2
			c0,0.3,0,2.2-0.1,5.7s-0.1,6.2-0.1,8.3c0,1.8,0,4.1,0,6.8c0,2.7,0,4.6,0,5.8c0.1,3.1,0.6,5.4,1.6,6.8s2.7,2.2,5,2.2
			s4.9-0.6,7.7-1.9s4.9-2.4,6.2-3.3c0-0.3,0-1.8,0-4.4s0-5.8,0-9.7c0-2.8,0-6.1-0.1-9.9c-0.1-3.9-0.1-6-0.1-6.3h6.2
			c0,0.4,0,1.9-0.1,4.4s-0.1,6.8-0.1,12.9c0,3.4,0,6.4,0,9C854.1,111.3,854.1,115.9,854.2,122.5z"/>
	</g>
	<g class="st2">
		<g>
			<defs>
				<rect id="SVGID_1_" x="59.9" y="27.3" width="824.8" height="191.6"/>
			</defs>
			<clipPath id="SVGID_2_">
				<use xlink:href="#SVGID_1_"  style="overflow:visible;"/>
			</clipPath>
			<path class="st4" d="M170,108.2c-0.8,0-1.5,0.3-2,0.9l-75.3,75.4l4.1,4.1l73.3-73.4l59,59.3l4.1-4.1l-61-61.3
				C171.6,108.5,170.8,108.2,170,108.2"/>
		</g>
		<g>
			<defs>
				<rect id="SVGID_3_" x="59.9" y="27.3" width="824.8" height="191.6"/>
			</defs>
			<clipPath id="SVGID_4_">
				<use xlink:href="#SVGID_3_"  style="overflow:visible;"/>
			</clipPath>
			<path class="st5" d="M213.5,152.4c-0.8,0-1.5,0.3-2,0.9l-12.4,12.4l-12.5-12.4c-1.1-1.1-3-1.1-4.1,0l-12.4,12.4l-12.4-12.4
				c-1.1-1.1-3-1.1-4.1,0L141,165.7l-5.2-5.2c-1.1-1.2-2.9-1.3-4.1-0.2c-1.2,1.1-1.3,2.9-0.2,4.1l0.2,0.2l7.3,7.3
				c1.1,1.1,3,1.1,4.1,0l12.4-12.4l12.4,12.4c1.1,1.1,3,1.1,4.1,0l12.4-12.4l12.5,12.4c1.1,1.1,3,1.1,4.1,0l14.5-14.5
				c1.2-1.1,1.2-2.9,0.1-4.1C215.1,152.7,214.3,152.4,213.5,152.4"/>
		</g>
		<g>
			<defs>
				<rect id="SVGID_5_" x="59.9" y="27.3" width="824.8" height="191.6"/>
			</defs>
			<clipPath id="SVGID_6_">
				<use xlink:href="#SVGID_5_"  style="overflow:visible;"/>
			</clipPath>
			<path class="st6" d="M129.4,119.8c-0.8,0-1.5,0.3-2,0.9l-49.3,49.7l4.1,4.1l47.3-47.7l12.5,12.4l4.1-4.1l-14.5-14.5
				C131,120.1,130.2,119.8,129.4,119.8"/>
		</g>
		<g>
			<defs>
				<rect id="SVGID_7_" x="59.9" y="27.3" width="824.8" height="191.6"/>
			</defs>
			<clipPath id="SVGID_8_">
				<use xlink:href="#SVGID_7_"  style="overflow:visible;"/>
			</clipPath>
			<path class="st7" d="M98.9,151.7c-1.6,0-2.9,1.3-2.9,2.9c0,0.8,0.3,1.5,0.9,2.1l8.7,8.7c1.1,1.2,2.9,1.2,4.1,0.1
				c1.2-1.1,1.2-2.9,0.1-4.1l-0.1-0.1l-8.7-8.7C100.4,152,99.7,151.7,98.9,151.7"/>
		</g>
		<g>
			<defs>
				<rect id="SVGID_9_" x="59.9" y="27.3" width="824.8" height="191.6"/>
			</defs>
			<clipPath id="SVGID_10_">
				<use xlink:href="#SVGID_9_"  style="overflow:visible;"/>
			</clipPath>
			<path class="st8" d="M155.6,218.9c-52.8,0-95.8-43-95.8-95.8s43-95.8,95.8-95.8c17.6,0,34.8,4.8,49.8,14c2.1,1.3,4.1,2.6,6.1,4
				c0,0,1.4,1.5,0.1,3.3c-1.4,1.8-3.4,1.4-3.4,1.4c-1.9-1.3-3.8-2.6-5.7-3.8c-14.1-8.6-30.2-13.1-46.8-13.1c-49.6,0-90,40.4-90,90
				s40.4,90,90,90c46.4,0,85.8-36.2,89.7-82.4c0,0,0.8-1.8,3.1-1.5s2.7,2,2.7,2C247,180.3,205,218.9,155.6,218.9"/>
		</g>
		<g>
			<defs>
				<rect id="SVGID_11_" x="59.9" y="27.3" width="824.8" height="191.6"/>
			</defs>
			<clipPath id="SVGID_12_">
				<use xlink:href="#SVGID_11_"  style="overflow:visible;"/>
			</clipPath>
			<path class="st9" d="M113.6,79.6c4.8,0,8.7,3.9,8.7,8.7c0,4.8-3.9,8.7-8.7,8.7s-8.7-3.9-8.7-8.7
				C104.8,83.4,108.7,79.6,113.6,79.6 M113.6,73.7c-8,0-14.5,6.5-14.5,14.5s6.5,14.5,14.5,14.5s14.5-6.5,14.5-14.5
				C128.1,80.3,121.5,73.7,113.6,73.7"/>
		</g>
	</g>
	<rect x="110.7" y="63.6" class="st1" width="5.8" height="5.8"/>
	<rect x="110.7" y="107.1" class="st10" width="5.8" height="5.8"/>
	<rect x="132.4" y="85.4" class="st1" width="5.8" height="5.8"/>
	<rect x="88.9" y="85.4" class="st1" width="5.8" height="5.8"/>
	<rect x="95.3" y="70" transform="matrix(0.7071 -0.7071 0.7071 0.7071 -22.756 90.7842)" class="st1" width="5.8" height="5.8"/>
	
		<rect x="126" y="100.7" transform="matrix(0.7071 -0.7071 0.7071 0.7071 -35.5406 121.4838)" class="st1" width="5.8" height="5.8"/>
	<rect x="126" y="70" transform="matrix(0.7071 -0.7071 0.7071 0.7071 -13.7985 112.5263)" class="st1" width="5.8" height="5.8"/>
	
		<rect x="95.2" y="100.7" transform="matrix(0.7071 -0.7071 0.7071 0.7071 -44.4982 99.7417)" class="st1" width="5.8" height="5.8"/>
	<g class="st2">
		<g>
			<defs>
				<rect id="SVGID_13_" x="176.9" y="53.9" width="332.9" height="66.5"/>
			</defs>
			<clipPath id="SVGID_14_">
				<use xlink:href="#SVGID_13_"  style="overflow:visible;"/>
			</clipPath>
			<path class="st11" d="M370.1,53.9h-7l0.1,20.4c-3.1,0-6.3,0.3-9.6,0.9c-3.2,0.6-6.1,1.5-8.6,2.7c-4.3,1.9-7.5,4.6-9.8,8.1
				s-3.4,7.4-3.4,11.9c0,3.8,1,7.3,3.1,10.4c2,3.1,5,5.6,8.9,7.5c3,1.4,6.1,2.4,9.2,2.9c3.2,0.5,7.5,0.7,13.1,0.7c0.6,0,1.3,0,2.3,0
				c0.9,0,1.5,0,1.7,0c0-3.6-0.1-7.9-0.1-13c0-5-0.1-10.6-0.1-16.9c0-7.9,0-15.6,0.1-23.3C370,58.6,370.1,54.5,370.1,53.9
				 M362,113.8c-2.8,0-5.5-0.3-8-0.8s-4.8-1.4-6.9-2.4c-2.3-1.2-4.3-2.9-5.8-5.1c-1.6-2.2-2.3-4.8-2.3-7.8c0-3.4,0.8-6.3,2.4-8.9
				c1.6-2.5,3.9-4.5,6.9-5.8c1.9-0.9,4.1-1.5,6.7-2s5.4-0.8,8.3-0.8v4.3v3.9c0,8.4,0,14.7,0,18.9c0,4.1,0,6.3,0,6.6h-0.6L362,113.8
				L362,113.8z M205.5,57.9c-3.9,0-7.6,0.8-11.2,2.3c-3.5,1.5-6.6,3.7-9.1,6.4c-2.8,3-4.8,6.3-6.2,10.1c-1.4,3.7-2.1,7.9-2.1,12.4
				c0,5.1,0.9,9.7,2.6,13.8c1.8,4.1,4.1,7.5,6.9,10.1c2.6,2.5,5.5,4.3,8.7,5.6c3.2,1.3,6.7,1.9,10.3,1.9c3.7,0,7.2-0.7,10.5-2
				s6.4-3.4,9.3-6.3c2.6-2.6,4.8-5.9,6.4-9.9c1.6-4,2.5-8.4,2.5-13.2c0-4.5-0.7-8.8-2.2-12.8s-3.7-7.5-6.6-10.4
				c-2.5-2.5-5.4-4.5-8.8-5.9C213.1,58.6,209.5,57.9,205.5,57.9 M205.4,114.5c-2.6,0-5.1-0.5-7.4-1.5c-2.3-1-4.3-2.3-6-3.9
				c-2.4-2.3-4.3-5.2-5.7-8.5c-1.3-3.4-2-7.2-2-11.4c0-3.8,0.7-7.4,2-10.9s3.2-6.4,5.5-8.8c1.9-1.9,3.9-3.3,6.2-4.2
				c2.3-1,4.8-1.4,7.4-1.4c2.7,0,5.2,0.5,7.4,1.4s4.2,2.3,6,4c2.6,2.5,4.6,5.6,5.9,9.3c1.3,3.7,1.9,7.5,1.9,11.3
				c0,4-0.7,7.7-2.1,10.9c-1.4,3.3-3.2,6-5.4,8.1c-1.9,1.8-3.9,3.2-6.2,4.1C210.5,114,208.1,114.5,205.4,114.5 M309,63.5h-6.4V74
				h-7.8v5.2h7.4c0,5.5,0,10.2-0.1,13.9c0,3.7-0.1,7.3-0.1,10.5c0,5.2,1.6,9.1,4.6,11.6c3.1,2.5,7.7,3.8,13.7,3.8c0.6,0,1.3,0,2.1,0
				c0.8,0,1.3-0.1,1.5-0.1l0.8-5.6c-0.2,0-0.7,0-1.4,0c-0.7,0-1.4,0-1.9,0c-4.3,0-7.5-0.8-9.6-2.5s-3.1-4.5-3.1-8.3V96v-4.6
				c0-1.5,0-3.7,0.1-6.8c0-3.1,0.1-4.9,0.1-5.5h15.8V74H309V63.5z M455.4,72.8c-2.9,0-5.7,0.6-8.3,1.7c-2.6,1.1-4.9,2.7-6.9,4.8
				c-2.2,2.3-3.8,4.8-4.9,7.7c-1,2.8-1.6,6-1.6,9.4c0,3.5,0.6,6.8,1.8,10c1.2,3.2,3,5.8,5.2,8c1.9,1.9,4.2,3.3,6.6,4.2
				c2.5,1,5.1,1.4,8,1.4c3,0,5.7-0.5,8.1-1.5s4.5-2.4,6.5-4.2c2.3-2.2,4.1-4.9,5.3-8c1.2-3.1,1.8-6.4,1.8-9.8c0-3.5-0.5-6.7-1.6-9.6
				s-2.8-5.5-5-7.8c-1.9-2-4.2-3.6-6.6-4.6C461.3,73.3,458.5,72.8,455.4,72.8 M455.4,114.2c-1.7,0-3.3-0.3-4.8-0.8s-2.8-1.3-4-2.4
				c-2-1.8-3.5-4-4.4-6.5s-1.4-5.3-1.4-8.3c0-2.7,0.4-5.2,1.3-7.7s2.1-4.5,3.7-6.1c1.3-1.4,2.7-2.4,4.2-3.1c1.5-0.6,3.3-1,5.3-1
				c1.7,0,3.4,0.3,4.9,0.9c1.6,0.6,2.9,1.5,4.1,2.6c1.9,1.8,3.3,4,4.2,6.6c0.9,2.6,1.4,5.3,1.4,8.1c0,2.7-0.4,5.2-1.3,7.6
				s-2.2,4.5-3.8,6.2c-1.2,1.2-2.6,2.2-4.2,2.8C459,113.9,457.2,114.2,455.4,114.2 M403.9,72.8c-2.9,0-5.7,0.6-8.3,1.7
				c-2.6,1.1-4.9,2.7-6.9,4.8c-2.2,2.3-3.8,4.8-4.9,7.7c-1,2.8-1.6,6-1.6,9.4c0,3.5,0.6,6.8,1.8,10c1.2,3.2,3,5.8,5.2,8
				c2,1.9,4.2,3.3,6.6,4.2c2.5,1,5.1,1.4,8,1.4c3,0,5.7-0.5,8.1-1.5s4.5-2.4,6.5-4.2c2.3-2.2,4.1-4.9,5.3-8c1.2-3.1,1.8-6.4,1.8-9.8
				c0-3.5-0.5-6.7-1.6-9.6s-2.8-5.5-5-7.8c-1.9-2-4.2-3.6-6.6-4.6C409.8,73.3,407,72.8,403.9,72.8 M403.9,114.2
				c-1.7,0-3.3-0.3-4.8-0.8s-2.8-1.3-4-2.4c-2-1.8-3.5-4-4.4-6.5s-1.4-5.3-1.4-8.3c0-2.7,0.5-5.2,1.3-7.7c0.9-2.5,2.1-4.5,3.7-6.1
				c1.3-1.4,2.7-2.4,4.2-3.1c1.5-0.6,3.3-1,5.3-1c1.7,0,3.4,0.3,4.9,0.9c1.6,0.6,2.9,1.5,4.1,2.6c1.9,1.8,3.3,4,4.2,6.6
				c0.9,2.6,1.3,5.3,1.3,8.1c0,2.7-0.4,5.2-1.3,7.6s-2.2,4.5-3.8,6.2c-1.2,1.2-2.6,2.2-4.2,2.8C407.5,113.9,405.7,114.2,403.9,114.2
				 M513.8,73c-1.9,0.5-4.5,1.4-7.8,2.8c-3.2,1.4-6.5,3-9.9,4.9l0,0V74h-6.9c0.1,4.4,0.1,9,0.1,13.9s0,8.8,0,11.5
				c0,6.8,0,11.6-0.1,14.4s-0.1,4.4-0.1,5h7c0-0.5,0-3.2-0.1-8s-0.1-8.9-0.1-12.4c0-2.3,0-4.7,0-7.4c0-2.6,0-4.1,0-4.4
				c4.4-2.1,8.2-3.7,11.6-5c3.3-1.2,5.8-2,7.4-2.4L513.8,73z M284.4,74h-7c0,0.4,0,2.7,0.1,7s0.1,8,0.1,11.1c0,4.3,0,7.9,0,10.9
				c0,2.9,0,4.5,0,4.9c-1.5,1.1-3.8,2.3-6.9,3.7c-3.1,1.4-6,2.1-8.6,2.1s-4.4-0.8-5.6-2.4c-1.1-1.6-1.8-4.2-1.8-7.6
				c0-1.3,0-3.4,0-6.5c0-3,0-5.6,0-7.6c0-2.3,0-5.4,0.1-9.2c0.1-3.9,0.1-6,0.1-6.4h-7c0,0.5,0,2.7,0.1,6.7c0.1,3.9,0.1,7.2,0.1,9.9
				c0,1.5,0,3.8-0.1,7.1c0,3.3-0.1,6.1-0.1,8.4c0,4.4,1.1,7.8,3.4,10.2c2.3,2.4,5.5,3.6,9.5,3.6c3,0,6-0.7,9.1-2.1s5.6-2.8,7.7-4.2
				l0,0v5.1h6.8c-0.1-7.4-0.1-12.5-0.1-15.4s0-6.2,0-10c0-6.8,0-11.6,0.1-14.4C284.3,76.1,284.4,74.5,284.4,74"/>
		</g>
	</g>
</g>
<g id="Laag_2">
	<g>
		<path class="st3" d="M274.9,172.2v-71.5h36.5v4.2h-31.7v26.3h29v4.1h-29v36.9H274.9z"/>
		<path class="st3" d="M329,172.2v-64.6c5.7-0.5,10.6-0.7,14.6-0.7c6.1,0,11.2,1.6,15.2,4.8c4,3.2,6,7.7,6,13.5
			c0,3.9-1.1,7.6-3.4,10.9c-2.3,3.3-4.8,6-7.7,8.1c7.9,10.5,12.8,16.8,14.7,18.9c3.8,3.9,7.9,6.2,12.4,6.7l-0.1,3.1
			c-3.7-0.1-6.8-0.6-9.1-1.7c-2.3-1-4.6-2.8-7-5.2c-2.3-2.5-7.4-9.1-15.1-19.9c-5.4,0-10.7-0.2-15.9-0.5v26.6H329z M347,142.3
			c2.6,0,5.4-1.7,8.4-5.2c3-3.5,4.5-7.5,4.5-12.1c0-4.6-1.6-8.1-4.7-10.5c-3.1-2.4-7.2-3.6-12.2-3.6c-2.7,0-5.8,0.1-9.4,0.4v30.5
			C338.4,142.1,342.9,142.3,347,142.3z"/>
		<path class="st3" d="M389.8,172.2v-64.9h4.6v64.9H389.8z"/>
		<path class="st3" d="M418.4,172.2v-64.9h30.3v4H423v23.6h23.2v3.9H423V168h26.7v4.2H418.4z"/>
		<path class="st3" d="M468.1,172.2v-65.3h2.2l42.6,49c1.5,1.7,3,3.4,4.2,5.1c1.3,1.7,2,2.6,2.1,2.6c-0.1-1.6-0.2-4.7-0.2-9.4v-47
			h4.6v65.3h-2.2L478,122.8l-5.5-6.7c0.1,1.3,0.2,4.5,0.2,9.4v46.7H468.1z"/>
		<path class="st3" d="M566.4,106.7c10,0,18.4,3.1,25.1,9.2c6.7,6.2,10,14.5,10,25.1s-3.1,18.6-9.2,23.9c-6.2,5.3-14.1,8-23.9,8
			c-6.7,0-13.7-0.3-20.8-1v-64.7C552.9,106.9,559.2,106.7,566.4,106.7z M568.4,168.8c8.5,0,15.4-2.3,20.6-6.9
			c5.2-4.6,7.8-11.5,7.8-20.8c0-9.3-2.9-16.6-8.8-22.1c-5.8-5.5-13-8.2-21.6-8.2c-6.1,0-10.7,0.1-14,0.4v56.9
			C556.4,168.5,561.7,168.8,568.4,168.8z"/>
		<path class="st3" d="M634.6,110.1c-3.6,0-6.5,0.9-8.8,2.6c-2.3,1.7-3.4,4.2-3.4,7.3c0,3.6,1.5,6.8,4.5,9.7
			c2.1,2.1,4.9,4.2,8.2,6.5c3.4,2.3,5.7,4,7,5c1.3,1,2.8,2.4,4.6,4.1c3.3,3.3,4.9,7,4.9,11.3c0,5.5-1.9,9.7-5.6,12.6
			c-3.7,2.8-8.9,4.2-15.5,4.2c-6.6,0-12.2-1.7-16.6-5.2l2.4-3.5c4.5,3.1,9.3,4.6,14.4,4.6c5.1,0,9-1.1,11.8-3.2
			c2.8-2.1,4.2-5.1,4.2-9c0-3.3-1.4-6.4-4.3-9.2c-2-2-4.7-4.2-8-6.5c-3.4-2.3-5.7-4-7.1-5.1c-1.3-1-2.9-2.4-4.7-4.1
			c-3.4-3.4-5.1-7.3-5.1-11.8c0-4.5,1.6-8,4.8-10.5c3.2-2.5,7.5-3.8,13.1-3.8s10.6,1.1,15.1,3.3l-1.7,3.7
			C644.8,111.1,640,110.1,634.6,110.1z"/>
		<path class="st3" d="M719.7,172.2v-32.8h-45.1v32.8H670v-64.9h4.6v28h45.1v-28h4.6v64.9H719.7z"/>
		<path class="st3" d="M748.3,172.2v-64.9h4.6v64.9H748.3z"/>
		<path class="st3" d="M776.9,172.2v-64.5c5-0.5,10.3-0.8,15.8-0.8s10.3,1.5,14.2,4.4c3.9,3,5.8,7.5,5.8,13.5s-2.6,10.9-7.9,14.8
			c-5.3,3.8-11.5,5.8-18.7,5.8c-0.3,0-0.7,0-1.1,0v-3.2c0.3,0,0.5,0,0.7,0c5.9,0,11.1-1.6,15.5-4.7c4.4-3.1,6.6-7.2,6.6-12.2
			s-1.6-8.6-4.7-10.9c-3.1-2.3-7.2-3.4-12.2-3.4c-2.7,0-5.8,0.1-9.4,0.4v60.9H776.9z"/>
	</g>
	<g>
		<g>
			<g>
				<path class="st3" d="M156.4,89.3c-4.3,0-9.7-1.1-9.7-6.3c0-5.1,5.1-9.7,10-10s10,4,9.1,9.1C165.3,86.8,160.4,88.8,156.4,89.3
					c-5.4,0.9-5.4,9.4,0,8.5c8.8-1.1,17.7-5.7,18.2-15.7c0.6-9.7-8.3-17.9-17.7-17.7c-9.4,0.3-18.2,8.5-18.8,17.9
					c-0.6,10.3,8.8,15.4,18.2,15.4C161.8,97.9,161.8,89.3,156.4,89.3L156.4,89.3z"/>
			</g>
		</g>
		<g>
			<g>
				<path class="st3" d="M122.8,172.2c-9.1-11.1,4.3-32.5,12.2-40.2c12-11.7,27.9-17.7,43.9-21.7c12.8-3.1,28.8-8.3,41.9-4
					c9.1,2.8,17.1,10.8,16.8,21.1c-0.3,4.8-4.3,13.1-9.4,14.5c-14.5,4-4-12.2-0.3-16.2c3.7-4-2.3-10-6-6c-6.8,7.1-14.8,17.1-8,27.3
					c5.1,7.7,14,5.4,20.5,1.1c20.5-13.7,11.7-42.4-9.4-49.9c-12.8-4.6-26.2-1.1-39.3,1.7c-15.7,3.4-31.6,8-45,16.8
					c-16.8,11.1-40.5,41-23.9,61.2C120.2,182.5,126.2,176.5,122.8,172.2L122.8,172.2z"/>
			</g>
		</g>
		<g>
			<g>
				<path class="st3" d="M219.4,120.7c-13.4-7.7-28.8-8.3-37.9,6c-8.3,12.8-9.1,30.2-6.8,44.7c0.9,5.4,9.1,3.1,8.3-2.3
					c-1.7-10.8-0.9-23.1,3.4-33.3c5.7-13.4,16.8-14.2,28.8-7.7C220,130.9,224.2,123.5,219.4,120.7L219.4,120.7z"/>
			</g>
		</g>
		<g>
			<g>
				<path class="st3" d="M238.8,140.6c6,7.4,13.4,17.4,13.4,27.3c0,5.4,8.5,5.4,8.5,0c0-12.5-8.5-24.2-16-33.3
					C241.3,130.4,235.3,136.4,238.8,140.6L238.8,140.6z"/>
			</g>
		</g>
		<g>
			<g>
				<path class="st3" d="M190.9,83.4c-3.1,0-5.1-0.3-4.6-3.1s3.1-6,6.3-6.3c2.6-0.3,4.3,1.4,4.6,3.7c0.6,3.7-2.8,5.4-6,6
					c-5.4,0.9-3.1,9.1,2.3,8.3c7.4-1.4,13.1-7.1,12.2-14.8c-0.9-7.1-6.8-12.5-14-11.7c-6.8,0.9-12.5,7.1-13.7,14
					c-1.1,8,5.4,13.1,12.8,12.5C196.6,91.6,196.6,83.1,190.9,83.4L190.9,83.4z"/>
			</g>
		</g>
	</g>
</g>
</svg>
