<?xml version="1.0" encoding="utf-8"?>
<!-- Generator: Adobe Illustrator 25.2.1, SVG Export Plug-In . SVG Version: 6.00 Build 0)  -->
<svg version="1.1" id="Laag_1" xmlns="http://www.w3.org/2000/svg" xmlns:xlink="http://www.w3.org/1999/xlink" x="0px" y="0px"
	 viewBox="0 0 160 160" style="enable-background:new 0 0 160 160;" xml:space="preserve">
<style type="text/css">
	.st0{fill:#0066A7;}
	.st1{fill:#FFFFFF;}
	.st2{fill:#0066A6;}
	.st3{fill:#00BFBF;}
</style>
<g>
	<path class="st0" d="M79.7,10.7L79.7,10.7c-0.1,0-0.2,0-0.2,0C59,10.7,42.3,27.4,42.3,48c0,4.5,3.8,14.3,7.3,23.9
		c4.9,13.4,27.1,65.1,30,68.6c0,0,0.1,0.2,0.1,0.1l0.1-0.1c2.9-3.5,23.2-53.1,29.9-68.7c4.1-9.4,7.2-19.5,7.2-23.9
		C117,27.3,100.3,10.7,79.7,10.7z"/>
	<path class="st1" d="M79.7,75.6c-14.9,0-27-12-27-26.9s12-27,26.9-27s27,12,27,26.9S94.6,75.6,79.7,75.6z"/>
</g>
<g>
	<path class="st2" d="M60.4,59.2c-0.5,0-0.7-0.2-0.7-0.6V36.4c0-0.4,0.2-0.6,0.7-0.6H65c3.6,0,6.2,0.6,7.8,2.2
		c1.1,1.1,1.7,2.8,1.7,5c0,4.5-2.7,7.7-8.3,7.7c-0.8,0-1.6,0-2.4-0.1v7.9c0,0.4-0.2,0.6-0.7,0.6L60.4,59.2L60.4,59.2z M63.9,39.1
		v8.3c0.7,0.1,1.4,0.1,2.1,0.1c3,0,4.4-1.7,4.4-4.4c0-1.5-0.5-2.4-1.2-3c-0.9-0.7-2.2-0.9-3.7-0.9L63.9,39.1L63.9,39.1z"/>
	<path class="st3" d="M80.8,48.5h3.4c0.2,0,0.3,0.1,0.3,0.3V50c0,0.2-0.1,0.3-0.3,0.3h-3.4v3.4c0,0.2-0.1,0.3-0.3,0.3h-1.1
		c-0.2,0-0.3-0.1-0.3-0.3v-3.4h-3.4c-0.2,0-0.3-0.1-0.3-0.3v-1.1c0-0.2,0.1-0.3,0.3-0.3H79v-3.4c0-0.2,0.1-0.3,0.3-0.3h1.1
		c0.2,0,0.3,0.1,0.3,0.3L80.8,48.5L80.8,48.5z"/>
	<path class="st2" d="M93.8,50.8c-0.4-0.7-0.7-0.8-1.4-0.8h-1.6v8.6c0,0.4-0.2,0.6-0.7,0.6h-2.8c-0.5,0-0.7-0.2-0.7-0.6V36.4
		c0-0.4,0.2-0.6,0.7-0.6h5.3c3.4,0,5.9,0.7,7.3,2.2c1,1.1,1.6,2.6,1.6,4.6c0,3.1-1.5,5.4-4.3,6.7l5.4,9.1c0.3,0.5,0.2,0.8-0.4,0.8
		h-3c-0.6,0-0.7,0-1.1-0.6L93.8,50.8z M90.8,39.1v7.6h2.1c3,0,4.5-1.5,4.5-4.1c0-1.2-0.3-2-0.9-2.5c-0.8-0.8-2.2-1-3.8-1H90.8z"/>
</g>
</svg>
