<?xml version="1.0" encoding="utf-8"?>
<!-- Generator: Adobe Illustrator 25.2.3, SVG Export Plug-In . SVG Version: 6.00 Build 0)  -->
<svg version="1.1" id="Laag_1" xmlns="http://www.w3.org/2000/svg" xmlns:xlink="http://www.w3.org/1999/xlink" x="0px" y="0px"
	 viewBox="0 0 252.9 137" style="enable-background:new 0 0 252.9 137;" xml:space="preserve">
<style type="text/css">
	.st0{fill:#FFFFFF;}
</style>
<path d="M51.1,83.9c0,8.6-0.2,16.7,0.1,24.8c0.2,4.3-1.4,5.3-5.4,5.3c-13.8-0.1-13.8,0-13.8-13.8c0-17.7,0-35.3,0-53
	c0-6.4,0-6.4,6.6-6.4c3.9,0,7.9,0,12.5,0c0,8.2,0.2,15.8-0.1,23.4c-0.1,3.8,1.1,4.9,4.8,4.8C63,68.8,70.1,69,78,69
	c0-7.7,0.3-15-0.1-22.2c-0.3-4.9,1.5-6.2,6.2-6c8.8,0.3,17.7,0.4,26.6-0.3c13-1.1,24.4,3.8,34,13.3c-0.9,1.1-1.6,2-2.4,2.8
	c-0.7,0.7-1.4,1.3-2.4,2.2c-8.8-8.2-19-12.2-31-11.2c-2,0.2-4,0.5-5.9,0.9c-6.4,1.5-7.9,1.7-6.4,8.9c13.4-5.2,26.9-3.6,37.9,6.4
	c-1.7,3.6-3.5,3.3-6.2,1.2c-8.3-6.2-17.3-7-26.9-3.3c-3,1.2-4.3,2.9-4.3,6.3c0.2,13.7-0.1,27.3,0.2,41c0.1,4-1.3,5.1-5.1,5
	C78,114,78,114.1,78,100c0-5.3,0-10.6,0-16.1C68.9,83.9,60.5,83.9,51.1,83.9z"/>
<path d="M91.3,37.5c-5.6,0-11.2,0.2-16.8-0.1c-1.4-0.1-2.9-1.3-4.2-2.3C64,29.8,57.5,24.5,51.3,19c-2.5-2.2-4.3-2.1-6.2,0.4
	c-0.2,0.3-0.4,0.5-0.7,0.7C31.1,30,25.8,42.9,28.2,59.5c1.1,7.7,0.4,15.6,0.1,23.4c-0.1,2.6-1.3,5.1-2,7.7c-0.6-0.1-1.3-0.1-1.9-0.2
	c-0.1-1.6-0.4-3.3-0.4-4.9c0-13,0-26,0-38.9c0-3.9,0.7-8.4-6.2-7.9c2-2.1,4.1-4.2,6.1-6.2c6.4-6.3,12.9-12.5,19-19.1
	c2.8-3,5.2-3.3,8.7-1.7c5.9,2.7,12,4.9,17.9,7.6c1.2,0.6,2.1,2.1,2.9,3.3c1.4,2.3,2.5,4.8,3.8,7.2c0.5-0.2,1.1-0.4,1.6-0.6
	c0-4.4,0-8.7,0-13.3c-1.3-0.2-3-0.4-4.3-0.6c6.9-0.8,9.8,0.9,9.4,7.4c-0.3,5,1.5,8.2,5.4,10.9c1.2,0.8,2.2,2,3.3,2.9
	C91.5,36.8,91.4,37.2,91.3,37.5z"/>
<path d="M164.2,112.7c0,4.3,0,8.3,0,12.6c-3,0-5.5,0-8.5,0c0-11.7,0-23.4,0-35c5.7-0.4,11.2-1.3,16.7-1.2c4.8,0.1,8.5,3,10.1,7.7
	c1.8,5,1.4,9.9-2.4,14c-3.5,3.8-7.9,4.8-12.8,3.1C166.6,113.5,165.6,113.2,164.2,112.7z"/>
<path d="M122.2,90.3c6-0.5,11.2-1.3,16.4-1.3c4.8,0,8.6,2.7,10.5,7.2c2.2,5.1,1.7,10.1-2.1,14.4c-3.3,3.7-7.4,4.8-12.2,3.4
	c-1.1-0.3-2.2-0.7-3.9-1.3c0,4.3,0,8.2,0,12c-7.8,2.4-8.8,1.7-8.8-5.3C122.2,109.8,122.2,100.1,122.2,90.3z"/>
<path d="M196.7,103.5c1.3,4.9,3.5,6,7.2,4.6c2.8-1,5.8-1.5,9.1-2.2c-0.7,6.7-5.7,9.6-13.5,8.8c-7.6-0.8-12.4-6.5-11.7-13.9
	c0.7-7.6,6.6-12.3,14.5-11.7c8.2,0.6,12.9,7.3,11.5,14.4C211,103.5,199.7,103.5,196.7,103.5z M206.2,99.2c0.3-0.6,0.6-1.2,0.9-1.8
	c-1.6-1.6-3.1-2.6-5-2.6c-1.8,0-5,1-6.3,2.9c0.3,0.5,0.5,1,0.8,1.5C199.8,99.2,203,99.2,206.2,99.2z"/>
<path d="M219.4,113.3c0-7.6,0-15.3,0-23.3c5.9-1.1,11.7,2.4,17.6-1.1c0,3.2,0,5.5,0,7.4c-2.6,0.8-6,0.9-7.4,2.6
	c-1.5,1.8-1.6,5.2-1.7,7.9C227.7,114.8,227.7,114.9,219.4,113.3z"/>
<path d="M115.9,113.6c-2.8,0-5.3,0-8,0c0-8,0-15.7,0-23.7c2.7,0,5.2,0,8,0C115.9,97.7,115.9,105.4,115.9,113.6z"/>
<path d="M99.3,73.1c6.7-7.3,20-6.6,26.2,1.4c-2.2,0.2-4.1,1-5.2,0.4c-5.6-3.3-10.9-3.3-16.5-0.1c-1.1,0.6-3,0.1-4.5,0.1
	C99.3,74.3,99.3,73.7,99.3,73.1z"/>
<path d="M110.6,85.9c-1.1-1.9-3.3-4-3.1-5.6c0.3-1.7,3-3,4.7-4.5c1.5,1.7,4,3.2,4.1,5c0.1,1.7-2.3,3.5-3.6,5.3
	C112,86,111.3,85.9,110.6,85.9z"/>
<rect x="73.6" y="15.2" width="0.8" height="11.4"/>
<circle class="st0" cx="138.8" cy="101.5" r="5.9"/>
<circle class="st0" cx="170.8" cy="101.5" r="5.9"/>
</svg>
